<svg width="429" height="630" viewBox="0 0 429 630" fill="none" xmlns="http://www.w3.org/2000/svg">
<path d="M429 0V629.989C406.071 630.385 383.063 620.169 368.515 602.429C336.257 562.991 349.065 498.131 313.091 462.097C292.059 441.032 259.959 436.043 230.23 435.488C200.502 435.013 169.825 437.706 141.677 427.806C88.6248 409.117 59.0545 341.406 81.3508 289.692C91.7084 265.696 110.605 246.61 124.916 224.832C139.226 202.974 149.031 174.94 138.515 151.023C117.167 102.477 36.6791 112.297 8.37376 67.4733C-4.35572 47.3581 -1.66751 20.9864 10.3504 0.0791941H429V0Z" fill="#264ECA"/>
</svg>
